<svg id="Capa_1" data-name="Capa 1" xmlns="http://www.w3.org/2000/svg" viewBox="0 0 1597.8 479.8"><defs><style>.cls-1{opacity:0.31;}.cls-2{fill:#fff;}</style></defs><title>lo demas</title><g id="Grupo_4" data-name="Grupo 4" class="cls-1"><g id="Grupo_15" data-name="Grupo 15"><path id="Trazado_107" data-name="Trazado 107" class="cls-2" d="M1125.4,22.1,1099.9,0l-64.2,55.2-20,250.1s16.9,89.1,149.1-11.2c0,0-7.6-10.1-17.7-3.5s-40.8,30.2-48.6,11.2S1125.4,22.1,1125.4,22.1Z"/><path id="Trazado_108" data-name="Trazado 108" class="cls-2" d="M986.8,290.8c-10.1,6.6-31.4,30.1-39.2,11.2s17.6-200.6,17.6-200.6l-30-12.8-59.3,45.8-2.4,20.1q-7.7-37.4-47.1-37.3a90.6,90.6,0,0,0-29.7,5.3,93.1,93.1,0,0,0-28.6,17,127.5,127.5,0,0,0-24.3,28q-10.5,16.4-16.8,40.2a198.5,198.5,0,0,0-6.3,52c0,25.1,6.1,44.4,18.5,57.9s29.7,20.3,52.3,20.3q28.7,0,48-15.9a64.5,64.5,0,0,0,17-21.4l-.5,4.9s16.7,88.7,148.5-11.2C1004.5,294.3,996.9,284.2,986.8,290.8ZM859.2,278c-11.8,18.2-27.2,28.6-42.1,26-25.1-4.4-39-43.9-31.2-88.2s34.4-76.6,59.4-72.2c11.6,2,20.8,11.5,26.5,25.5Z"/><path id="Trazado_109" data-name="Trazado 109" class="cls-2" d="M686.6,140.3q-19.4-23.1-52.7-23.1c-16.7,0-31.1,4.5-43.1,13.5-8.2,6.1-16.8,17.9-21.5,24.8l1.7-15.8s-6.8-88.8-139.3,10c0,0,7.5,10.2,17.6,3.6s22.4-20.6,30-1.7-38.4,306-38.4,306l34.5,22.2,64.2-54.4,10.8-97.6c12.1,6.7,26.2,10.1,42.1,10.1a132.2,132.2,0,0,0,34.8-4.3,102.4,102.4,0,0,0,30.8-14.5,94.8,94.8,0,0,0,25.2-25.7c7-10.3,12.5-23.4,16.6-39.1s6.1-33.6,6.1-53.4Q706,163.6,686.6,140.3ZM639.5,247.7c-13.1,49-46.2,82.7-73.9,75.3a32,32,0,0,1-13.8-8l16.5-150.4c13.9-15.4,30.1-23,44.8-19.1,27.7,7.4,39.5,53.1,26.4,102.2Z"/><g id="Grupo_9" data-name="Grupo 9"><path id="Trazado_110" data-name="Trazado 110" class="cls-2" d="M1399.8,172.3a85.5,85.5,0,0,0-22.6-32.1,100.9,100.9,0,0,0-34-19,130,130,0,0,0-42.4-6.5,150.6,150.6,0,0,0-50.2,8.3,130.1,130.1,0,0,0-41.5,23.7c-12,10.4-21.5,23.5-28.5,39.6s-10.4,33.8-10.4,53.4q0,48.4,28.9,74.2c19.3,17,45.3,25.6,78.2,25.6q37.8,0,67.1-14.1a109,109,0,0,0,46.5-42.2c11.4-18.8,17.1-40.9,17.1-66.6C1408,200.1,1405.3,185.3,1399.8,172.3Zm-71.7,62.9c-11.6,55.5-38.5,96.8-60,92.3s-29.5-53.1-17.9-108.6,38.4-96.8,59.9-92.3,29.6,53.2,18,108.6Z"/></g><g id="Grupo_12" data-name="Grupo 12"><g id="Grupo_10" data-name="Grupo 10"><path id="Trazado_111" data-name="Trazado 111" class="cls-2" d="M417.4,172.3c-5.5-13-13-23.7-22.7-32.1a100.4,100.4,0,0,0-33.9-19,130.6,130.6,0,0,0-42.5-6.5,150.1,150.1,0,0,0-50.1,8.3,129,129,0,0,0-41.5,23.7c-12,10.4-21.5,23.5-28.5,39.6s-10.4,33.8-10.4,53.4q0,48.4,28.9,74.2c19.2,17,45.3,25.6,78.1,25.6q37.9,0,67.2-14.1a108.8,108.8,0,0,0,46.4-42.2c11.5-18.8,17.2-40.9,17.2-66.6C425.6,200.1,422.8,185.3,417.4,172.3Zm-71.8,62.9c-11.6,55.5-38.4,96.8-59.9,92.3s-29.6-53.1-18-108.6,38.5-96.8,60-92.3S357.2,179.8,345.6,235.2Z"/></g><g id="Grupo_11" data-name="Grupo 11"><path id="Trazado_112" data-name="Trazado 112" class="cls-2" d="M405,42.7c0,7.7-3.2,15.1-9.6,22.4a85.8,85.8,0,0,1-24.5,18.7,252.7,252.7,0,0,1-29.6,13.3c-7.3,2.6-14.3,4.7-21.1,6.5h0l-9.3,2.6a2.1,2.1,0,0,1-2.5-1.5v-.6l.2-3.1A14.7,14.7,0,0,1,322,87.6l2.3-.2c1-1.6,1.8-3.1,2.5-4.4A102.8,102.8,0,0,0,331,72.6c1.7-4.9,2.9-8.5,3.8-11s2.2-7,4.1-13.4q9.6-31.1,37-31.1c9,0,16.1,2.4,21.3,7.4A24.2,24.2,0,0,1,405,42.7Z"/></g></g><g id="Grupo_13" data-name="Grupo 13"><path id="Trazado_113" data-name="Trazado 113" class="cls-2" d="M186.2,128l-.6,3.5h0l-.2.9v.5a78,78,0,0,1-33.5,49.8h0a73.2,73.2,0,0,1-8.6,4.9L68.4,224.5l-3,1.4c-2.1,1.1-3.2,2.4-3.5,4a3.6,3.6,0,0,0,2,3.9l49.5,30.5,11.4,6.9a19,19,0,0,1,3.3,2.2,49.4,49.4,0,0,1,19.4,50.9l-.4,1.5c-.5,2.9-1.6,4.8-3.3,5.9s-3.6.9-5.7-.4L7.4,251.2c-3.7-2.1-5.9-4.4-6.7-7a16.7,16.7,0,0,1-.4-8l3.6-17A17.9,17.9,0,0,1,7,211.5c1.6-2.2,4.9-4.7,9.9-7.3l161-81.3c2.9-1.3,5.2-1.5,6.7-.4S186.7,125.4,186.2,128Z"/></g><g id="Grupo_14" data-name="Grupo 14"><path id="Trazado_114" data-name="Trazado 114" class="cls-2" d="M1411.6,326.2l.6-3.5h.1v-.9a.9.9,0,0,1,.1-.5,77.3,77.3,0,0,1,33.4-49.8h0a74,74,0,0,1,8.6-5l74.9-36.7h0l3-1.4c2.1-1.1,3.3-2.4,3.5-4a3.6,3.6,0,0,0-1.9-3.9l-49.6-30.5L1473,183a19,19,0,0,1-3.3-2.2,49.4,49.4,0,0,1-19.4-50.9l.4-1.5c.5-2.9,1.6-4.9,3.3-5.9s3.6-.9,5.8.4L1590.4,203c3.7,2.1,5.9,4.4,6.7,6.9a17.1,17.1,0,0,1,.4,8.1l-3.6,17a17.9,17.9,0,0,1-3.1,7.7c-1.6,2.2-4.9,4.7-9.9,7.3l-161,81.3c-2.9,1.3-5.1,1.4-6.7.4S1411.1,328.8,1411.6,326.2Z"/></g></g></g></svg>