<svg id="Capa_1" data-name="Capa 1" xmlns="http://www.w3.org/2000/svg" viewBox="0 0 994.8 74.5"><defs><style>.cls-1{isolation:isolate;}.cls-2{fill:#fff;}</style></defs><title>lo demas</title><g id="Próximamente" class="cls-1"><g class="cls-1"><path class="cls-2" d="M34,2.5c6.8,0,11.9,1.8,15.3,5.5s5,8.5,5,14.4c0,8.7-2.5,15.7-7.6,21s-11.9,8-20.8,8H20.3L17.5,73.5H0l8.8-71ZM26.2,35.6a8.2,8.2,0,0,0,6.7-3.1,11.3,11.3,0,0,0,2.6-7.4q0-3.5-1.8-5.1a6.4,6.4,0,0,0-4.5-1.6H24.4L22.3,35.6Z"/><path class="cls-2" d="M112.2,30.2c3.7-4.5,8-6.7,13-6.7l-2.4,18.7a7.2,7.2,0,0,0-8.4.9c-2.6,2.1-4.3,5.8-5.2,11.2l-2.4,19.2h-17l6-49h17l-.7,5.7Z"/><path class="cls-2" d="M187,23.5q9.6,0,15.3,5.7T208,44.8A37,37,0,0,1,206.4,56a30.9,30.9,0,0,1-4.8,9.4,22,22,0,0,1-8.8,6.6,29.8,29.8,0,0,1-12.6,2.5q-9.4,0-15-5.7t-5.7-15.6c0-8.3,2.5-15.3,7.4-21S178.5,23.5,187,23.5Zm-1.5,15.2c-2.7,0-4.8,1.4-6.4,4.3a19.6,19.6,0,0,0-2.4,9.7,7,7,0,0,0,1.7,5.1,4.7,4.7,0,0,0,3.4,1.6c2.7,0,4.8-1.4,6.5-4.1a17.5,17.5,0,0,0,2.5-9.5c0-2.6-.5-4.4-1.6-5.5A5.2,5.2,0,0,0,185.5,38.7Zm6.9-36.1h15.5L195.4,17.1l-14.6.6Z"/><path class="cls-2" d="M291.7,24.5,274.4,48.8l11.5,24.7H268.1l-4.2-10.4h-.2l-6.9,10.4H238.7l17.6-25.6L245.2,24.5h18.5l3.4,9.9h.1l5.6-9.9Z"/><path class="cls-2" d="M332.5,24.5h17l-6,49h-17ZM343,0a10,10,0,0,1,7.1,2.6,8.4,8.4,0,0,1,2.8,6.6,9.5,9.5,0,0,1-2.9,7,10.1,10.1,0,0,1-7.3,2.7,10.5,10.5,0,0,1-7.3-2.6,9.3,9.3,0,0,1-2.7-6.8,9,9,0,0,1,2.8-6.8A10.5,10.5,0,0,1,343,0Z"/><path class="cls-2" d="M452.1,23.5c4.8,0,8.1,1.7,9.9,4.9s2.3,8.6,1.3,15.8l-3.8,29.3H442.7L446.1,48a22.5,22.5,0,0,0,.3-7.1,2.3,2.3,0,0,0-2.5-2.2c-1.7,0-3.4,1.5-5.3,4.4s-3.2,7.2-3.9,12.8l-2.4,17.6H415.5L418.8,48a24.3,24.3,0,0,0,.5-7.1,2.4,2.4,0,0,0-2.6-2.2c-1.4,0-3.1,1.3-4.9,3.9s-3.2,6.3-4,11.2l-2.4,19.7h-17l6-49h17l-.7,5.7h.1a18.6,18.6,0,0,1,14.7-6.7c5.4,0,8.9,2.3,10.3,6.9h.2A20.9,20.9,0,0,1,452.1,23.5Z"/><path class="cls-2" d="M538.4,24.5h17.1l-6,49H532.4l.8-6.5H533c-3.5,5-8,7.5-13.3,7.5a13.2,13.2,0,0,1-11.4-5.7c-2.7-3.7-4.1-8.5-4.1-14.4,0-9,2.2-16.4,6.7-22.2s9.8-8.7,15.9-8.7,8.5,1.4,11,4.3h.2ZM525.8,59.4c2.3,0,4.5-1.4,6.6-4.4s3.6-6.9,4.4-12.2l.2-1.1a8.7,8.7,0,0,0-6.7-3.1c-2.6,0-4.8,1.5-6.5,4.5a19,19,0,0,0-2.5,9.5,9.1,9.1,0,0,0,1.2,4.9A3.9,3.9,0,0,0,525.8,59.4Z"/><path class="cls-2" d="M657.3,23.5c4.8,0,8.1,1.7,9.9,4.9s2.3,8.6,1.3,15.8l-3.8,29.3H647.9L651.3,48a22.5,22.5,0,0,0,.3-7.1,2.3,2.3,0,0,0-2.5-2.2c-1.7,0-3.4,1.5-5.3,4.4s-3.2,7.2-3.9,12.8l-2.4,17.6H620.7L624,48a24.3,24.3,0,0,0,.5-7.1,2.4,2.4,0,0,0-2.6-2.2c-1.4,0-3.1,1.3-4.9,3.9s-3.2,6.3-4,11.2l-2.4,19.7h-17l6-49h17l-.7,5.7h.1a18.6,18.6,0,0,1,14.7-6.7c5.4,0,8.9,2.3,10.3,6.9h.2A20.9,20.9,0,0,1,657.3,23.5Z"/><path class="cls-2" d="M731.8,60.9c3.1,0,5.7-1.6,7.8-4.7L752,62.9c-4.9,7.7-12.1,11.6-21.8,11.6-6.6,0-11.7-1.8-15.4-5.5s-5.4-9-5.4-15.7a31.1,31.1,0,0,1,7.5-21c5.1-5.9,11.7-8.8,20-8.8a20.2,20.2,0,0,1,11.9,3.6c3.5,2.4,5.2,5.9,5.2,10.6s-2.6,9.2-7.9,12.3-11.9,5.4-20,6.7Q727.6,60.9,731.8,60.9Zm3.7-23.6a7.7,7.7,0,0,0-5.7,2.7,14.6,14.6,0,0,0-3.6,7c7.9-1.6,11.8-4.1,11.8-7.5a1.8,1.8,0,0,0-.7-1.5A2.4,2.4,0,0,0,735.5,37.3Z"/><path class="cls-2" d="M829.5,23.5c9,0,12.6,6.6,10.9,19.8l-4,30.2H819.6L823,48a25.1,25.1,0,0,0,.2-7.1c-.2-1.5-1-2.2-2.2-2.2s-4,1.3-6,3.9-3.2,6.4-4.1,11.5l-2.4,19.4h-17l6-49h17l-.8,6.3h.2A19.6,19.6,0,0,1,829.5,23.5Z"/><path class="cls-2" d="M906.6,58.3l3,12.7A29.6,29.6,0,0,1,896,74.5c-4.1,0-7.4-1.2-9.7-3.7s-3.2-6.7-2.5-12.6l2.5-20.1h-4.8l1.7-13.6H888l1.7-13.8L907,7.3l-2.1,17.2h9.3l-1.7,13.6h-9.2l-2.2,18.1c-.4,2.1.2,3.2,1.7,3.2A10.7,10.7,0,0,0,906.6,58.3Z"/><path class="cls-2" d="M972.6,60.9c3.1,0,5.7-1.6,7.8-4.7l12.4,6.7c-4.9,7.7-12.1,11.6-21.8,11.6-6.6,0-11.7-1.8-15.4-5.5s-5.4-9-5.4-15.7a31.1,31.1,0,0,1,7.5-21c5.1-5.9,11.7-8.8,20-8.8a20.2,20.2,0,0,1,11.9,3.6c3.5,2.4,5.2,5.9,5.2,10.6s-2.6,9.2-7.9,12.3-11.9,5.4-20,6.7Q968.4,60.9,972.6,60.9Zm3.7-23.6a7.7,7.7,0,0,0-5.7,2.7,14.6,14.6,0,0,0-3.6,7c7.9-1.6,11.8-4.1,11.8-7.5a1.8,1.8,0,0,0-.7-1.5A2.4,2.4,0,0,0,976.3,37.3Z"/></g></g></svg>