<svg id="Capa_1" data-name="Capa 1" xmlns="http://www.w3.org/2000/svg" viewBox="0 0 500 500"><defs><style>.cls-1{fill:#fff;}</style></defs><title>iconos</title><path class="cls-1" d="M403.6,25.6H96.4c-39.1,0-70.8,32.2-70.8,71.9v305c0,39.7,31.7,71.9,70.8,71.9H403.6c39.1,0,70.8-32.2,70.8-71.9V97.5C474.4,57.8,442.7,25.6,403.6,25.6Zm.7,306.7c0,39.8-31.7,72-70.8,72h-167c-39.1,0-70.8-32.2-70.8-72V167.7c0-39.8,31.7-72,70.8-72h167c39.1,0,70.8,32.2,70.8,72Z"/><path class="cls-1" d="M359.3,162.5,339,183.2l-20.4-20.7a5.2,5.2,0,0,1,0-7.3L339,134.6l20.3,20.6A5.2,5.2,0,0,1,359.3,162.5Z"/><path class="cls-1" d="M243,154.3c-57.3,0-103.8,47.3-103.8,105.6S185.7,365.4,243,365.4s103.9-47.2,103.9-105.5S300.4,154.3,243,154.3Zm0,163.4c-31.4,0-56.8-25.9-56.8-57.8S211.6,202,243,202s56.9,25.9,56.9,57.9S274.5,317.7,243,317.7Z"/></svg>