<svg id="Capa_1" data-name="Capa 1" xmlns="http://www.w3.org/2000/svg" viewBox="0 0 500 500"><defs><style>.cls-1{fill:#fff;}</style></defs><title>iconos</title><path class="cls-1" d="M428,25.6H115.6A71.9,71.9,0,0,0,43.7,97.5v14.8H24a24,24,0,0,0-24,24V164a24.1,24.1,0,0,0,24,24.1H43.7v29H24a24,24,0,0,0-24,24v27.7a24,24,0,0,0,24,24H43.7v39.9H24a24.1,24.1,0,0,0-24,24v27.8a24.1,24.1,0,0,0,24,24H43.9a72,72,0,0,0,71.7,65.9H428a71.9,71.9,0,0,0,72-71.9V97.5A71.9,71.9,0,0,0,428,25.6ZM24,176.6A12.6,12.6,0,0,1,11.5,164V136.3A12.5,12.5,0,0,1,24,123.8H76.6a12.5,12.5,0,0,1,12.5,12.5V164a12.6,12.6,0,0,1-12.5,12.6Zm0,104.7a12.5,12.5,0,0,1-12.5-12.5V241.1A12.5,12.5,0,0,1,24,228.6H76.6a12.5,12.5,0,0,1,12.5,12.5v27.7a12.5,12.5,0,0,1-12.5,12.5ZM11.5,384.5V356.7A12.5,12.5,0,0,1,24,344.2H76.6a12.5,12.5,0,0,1,12.5,12.5v27.8A12.5,12.5,0,0,1,76.6,397H24A12.5,12.5,0,0,1,11.5,384.5Zm234.1-18.3c-38.5-59.1-46.2-181.6-15.5-245,28.4-59.3,82.1-34.6,82-24.6s-4.5,65.1-4.5,65.1,2.6,9.9-14.8,9.7a136.8,136.8,0,0,0-27.9,3.1s-4.7-.4-7.8,14.5c-2.6,11.5,2.7,95.4,6.8,106.5,4.9,14.4,8.9,14.2,8.9,14.2a202.1,202.1,0,0,0,28.7-1.2c16.6-1.7,15.9,9,15.9,9S328.2,371,329.5,381,281.9,422.1,245.6,366.2Z"/></svg>