<svg id="Capa_1" data-name="Capa 1" xmlns="http://www.w3.org/2000/svg" viewBox="0 0 500 500"><defs><style>.cls-1{fill:#fff;}</style></defs><title>iconos</title><path class="cls-1" d="M478.2,97.5v305a72,72,0,0,1-72,71.9H276.9l4.1-.9V328h72.9l-15.1-60.3H281s-1.3-44.1,2.3-52.9c5.4-17.8,27.4-18.5,27.4-18.5l43.2-.3-12.7-51.2c-20.7-4-48.8-4-48.8-4a89.5,89.5,0,0,0-40.3,9.9,73.5,73.5,0,0,0-35.7,60.1c-.5,14.5-.5,56.9-.5,56.9H163V328h52.9V473.5a56.2,56.2,0,0,0,5.7.9H93.8a72,72,0,0,1-72-71.9V97.5a72,72,0,0,1,72-71.9H406.2A72,72,0,0,1,478.2,97.5Z"/></svg>