<svg id="Capa_1" data-name="Capa 1" xmlns="http://www.w3.org/2000/svg" viewBox="0 0 500 500"><defs><style>.cls-1{fill:#fff;}</style></defs><title>iconos</title><path class="cls-1" d="M494.4,73.4,289.6,252.8H289a5.9,5.9,0,0,1-1.7,3.2l-37.1,37-37-37a5.9,5.9,0,0,1-1.7-3.2h-.6L5.6,73.4A44.5,44.5,0,0,0,0,95.2V404.8a45.1,45.1,0,0,0,45.1,45.1H454.9A45.1,45.1,0,0,0,500,404.8V95.2A44.5,44.5,0,0,0,494.4,73.4ZM215.5,240.6h3.8l30.9-30.9,31,30.9H285L487,63.7h.1a45.2,45.2,0,0,0-32.2-13.5H45.1A45.2,45.2,0,0,0,12.9,63.6h0Z"/></svg>