<svg id="Capa_1" data-name="Capa 1" xmlns="http://www.w3.org/2000/svg" viewBox="0 0 674.6 663.6"><defs><style>.cls-1{fill:#fff;}</style></defs><title>iconos opalo</title><path class="cls-1" d="M462.8,103.7h-251A106.4,106.4,0,0,0,105.4,210.1V453.5A106.4,106.4,0,0,0,211.8,559.9h251A106.4,106.4,0,0,0,569.2,453.5V210.1A106.4,106.4,0,0,0,462.8,103.7ZM337.3,487.9A156.1,156.1,0,1,1,493.4,331.8,156.1,156.1,0,0,1,337.3,487.9Zm174.8-300-30.6,30.6-30.6-30.6a7.6,7.6,0,0,1,0-10.8l30.6-30.6,30.6,30.6A7.8,7.8,0,0,1,512.1,187.9ZM337.3,246.3a85.5,85.5,0,1,0,85.5,85.5A85.5,85.5,0,0,0,337.3,246.3Z"/><path class="cls-1" d="M422.8,331.8a85.5,85.5,0,1,1-85.5-85.5A85.5,85.5,0,0,1,422.8,331.8Z"/></svg>