<svg id="Capa_1" data-name="Capa 1" xmlns="http://www.w3.org/2000/svg" viewBox="0 0 739.2 663.6"><defs><style>.cls-1{fill:#fff;}.cls-2{fill:none;stroke:#fff;stroke-miterlimit:10;stroke-width:17px;}</style></defs><title>iconos opalo</title><path class="cls-1" d="M632.8,17a89.5,89.5,0,0,1,89.4,89.4V557.2a89.5,89.5,0,0,1-89.4,89.4H171a89.5,89.5,0,0,1-89.4-89.4V106.4A89.5,89.5,0,0,1,171,17H632.8m0-17H171A106.4,106.4,0,0,0,64.6,106.4V557.2A106.4,106.4,0,0,0,171,663.6H632.8A106.4,106.4,0,0,0,739.2,557.2V106.4A106.4,106.4,0,0,0,632.8,0Z"/><path class="cls-1" d="M340.2,141.3C382.1,53.7,461.5,90.2,461.4,105s-6.7,96.3-6.7,96.3,3.9,14.6-21.8,14.2-41.3,4.6-41.3,4.6-6.9-.5-11.5,21.5c-3.8,17.1,4,141.1,10,157.5,7.3,21.3,13.2,20.9,13.2,20.9a301.8,301.8,0,0,0,42.4-1.7c24.5-2.5,23.6,13.4,23.6,13.4s15.8,79,17.8,93.7c3.8,14.6-70.3,60.8-124-21.8C306.2,416.3,294.7,235.2,340.2,141.3Z"/><rect class="cls-2" x="8.5" y="136.7" width="131.7" height="95.03" rx="27" ry="27"/><rect class="cls-2" x="8.5" y="462.6" width="131.7" height="95.03" rx="27" ry="27"/><rect class="cls-2" x="8.5" y="291.6" width="131.7" height="95.03" rx="27" ry="27"/></svg>