<svg id="Capa_1" data-name="Capa 1" xmlns="http://www.w3.org/2000/svg" viewBox="0 0 1920 4936"><defs><style>.cls-1{fill:#b8f192;}.cls-2{fill:#50bf94;}.cls-3{fill:#5b5a58;}.cls-4{fill:#f7234b;}.cls-5{fill:#ff835d;}.cls-6{fill:#f6db84;}.cls-7{fill:none;stroke:#fff;stroke-linecap:round;stroke-miterlimit:10;stroke-width:31px;}</style></defs><title>prueba</title><rect class="cls-1" y="-3" width="1936" height="824"/><rect class="cls-2" y="821" width="1936" height="824"/><rect class="cls-3" y="1645" width="1936" height="824"/><rect class="cls-4" y="2469" width="1936" height="824"/><rect class="cls-5" y="3293" width="1936" height="824"/><rect class="cls-6" y="4117" width="1936" height="824"/><polyline class="cls-7" points="1788.5 408.5 644.5 1552.5 1756.5 2664.5"/><polyline class="cls-7" points="112.5 4888.5 1256.5 3744.5 144.5 2632.5"/><line class="cls-7" x1="191.5" y1="408.5" x2="191.5" y2="566.5"/><line class="cls-7" x1="112.5" y1="487.5" x2="270.5" y2="487.5"/><line class="cls-7" x1="1709.5" y1="4730.5" x2="1709.5" y2="4888.5"/><line class="cls-7" x1="1630.5" y1="4809.5" x2="1788.5" y2="4809.5"/><line class="cls-7" x1="873.5" y1="2585.5" x2="1031.5" y2="2585.5"/><rect class="cls-7" x="112.5" y="1436.5" width="200" height="200"/><rect class="cls-7" x="1588.5" y="3660.5" width="200" height="200" rx="100" ry="100"/></svg>